{"asset":{"generator":"Modov11.2","version":"2.0"},"scene":0,"scenes":[{"nodes":[0]}],"nodes":[{"name":"musical_notes","mesh":0}],"meshes":[{"primitives":[{"indices":1,"mode":4,"material":1,"attributes":{"POSITION":0,"NORMAL":2,"TEXCOORD_0":3}}]}],"buffers":[{"byteLength":41084,"uri":"musical_notes.bin"}],"bufferViews":[{"buffer":0,"byteLength":9264},{"buffer":0,"byteLength":16380,"byteOffset":9264},{"buffer":0,"byteLength":9264,"byteOffset":25644},{"buffer":0,"byteLength":6176,"byteOffset":34908}],"accessors":[{"bufferView":0,"type":"VEC3","componentType":5126,"count":772,"min":[-2.8168821334838869,-2.4281439781188967,-0.3168199062347412],"max":[2.818439483642578,2.426797866821289,0.3168199062347412]},{"bufferView":1,"type":"SCALAR","componentType":5125,"count":4095},{"bufferView":2,"type":"VEC3","componentType":5126,"count":772},{"bufferView":3,"type":"VEC2","componentType":5126,"count":772}],"materials":[{"pbrMetallicRoughness":{"metallicFactor":0.5,"roughnessFactor":0.5}},{"name":"SVGMat.006","emissiveFactor":[0.0,0.0,0.0],"alphaMode":"OPAQUE","doubleSided":false,"pbrMetallicRoughness":{"baseColorFactor":[1.0,1.0,1.0,1.0],"metallicFactor":1.0,"roughnessFactor":1.0}}]}